<?xml version="1.0" encoding="iso-8859-1"?>
<!-- Generator: Adobe Illustrator 16.0.0, SVG Export Plug-In . SVG Version: 6.00 Build 0)  -->
<!DOCTYPE svg PUBLIC "-//W3C//DTD SVG 1.1//EN" "http://www.w3.org/Graphics/SVG/1.1/DTD/svg11.dtd">
<svg version="1.1" id="Capa_1" xmlns="http://www.w3.org/2000/svg" xmlns:xlink="http://www.w3.org/1999/xlink" x="0px" y="0px"
	 width="437.478px" height="437.478px" viewBox="0 0 437.478 437.478" style="enable-background:new 0 0 437.478 437.478;"
	 xml:space="preserve">
<g>
	<g>
		<g>
			<path d="M424.163,78.349c1.875-1.875,2.929-4.419,2.929-7.071c0-2.652-1.054-5.195-2.929-7.071L363.137,3.18
				c-1.875-1.875-4.42-2.929-7.071-2.929s-5.195,1.054-7.07,2.929L218.864,133.312L88.483,2.929C86.608,1.054,84.064,0,81.412,0
				c-2.652,0-5.196,1.054-7.071,2.929L13.314,63.956c-3.903,3.903-3.905,10.231-0.005,14.138l148.433,148.642v14.228
				c-29.756,18.918-49.543,52.177-49.543,89.974c0,58.746,47.794,106.541,106.54,106.541s106.54-47.795,106.54-106.541
				c0-37.797-19.786-71.056-49.543-89.974v-14.185L424.163,78.349z M356.064,42.778l28.5,28.5L270.698,185.145l-28.5-28.5
				L356.064,42.778z M295.698,330.935c0,42.438-34.523,76.96-76.96,76.96c-42.435,0-76.959-34.522-76.959-76.959
				s34.524-76.961,76.959-76.961C261.174,253.975,295.698,288.5,295.698,330.935z"/>
			<path d="M264.046,309.779l-26.464-3.845l-11.834-23.979c-1.317-2.668-4.032-4.357-7.011-4.357c-2.976,0-5.691,1.689-7.01,4.357
				l-11.833,23.979l-26.464,3.845c-2.945,0.43-5.39,2.489-6.31,5.318c-0.919,2.83-0.152,5.938,1.978,8.014l19.15,18.666
				l-4.521,26.356c-0.503,2.933,0.7,5.896,3.109,7.646c2.406,1.748,5.598,1.979,8.231,0.596l23.67-12.443l23.671,12.441
				c1.145,0.604,2.393,0.898,3.638,0.898c1.621,0,3.23-0.505,4.594-1.492c2.408-1.75,3.612-4.715,3.108-7.646l-4.521-26.358
				l19.151-18.664c2.129-2.076,2.896-5.185,1.977-8.015C269.436,312.27,266.989,310.209,264.046,309.779z"/>
		</g>
	</g>
</g>
<g>
</g>
<g>
</g>
<g>
</g>
<g>
</g>
<g>
</g>
<g>
</g>
<g>
</g>
<g>
</g>
<g>
</g>
<g>
</g>
<g>
</g>
<g>
</g>
<g>
</g>
<g>
</g>
<g>
</g>
</svg>
