<?xml version="1.0" encoding="iso-8859-1"?>
<!-- Generator: Adobe Illustrator 19.0.0, SVG Export Plug-In . SVG Version: 6.00 Build 0)  -->
<svg version="1.1" id="Layer_1" xmlns="http://www.w3.org/2000/svg" xmlns:xlink="http://www.w3.org/1999/xlink" x="0px" y="0px"
	 viewBox="0 0 295.238 295.238" style="enable-background:new 0 0 295.238 295.238;" xml:space="preserve">
<g>
	<g>
		<g>
			<path d="M259.386,123.81c-0.819-3.9-1.838-7.738-3.043-11.471l31.024-17.91l-23.81-41.238L232.5,71.124
				c-2.648-2.938-5.452-5.743-8.381-8.386l17.933-31.052L200.81,7.876L182.9,38.9c-3.724-1.21-7.562-2.229-11.471-3.052V0H123.81
				v35.848c-3.91,0.824-7.748,1.843-11.471,3.048L94.433,7.871L53.19,31.681l17.929,31.052c-2.933,2.648-5.738,5.452-8.381,8.386
				L31.681,53.19L7.871,94.429l31.024,17.91c-1.2,3.729-2.219,7.567-3.043,11.471H0v47.619h35.852
				c0.824,3.905,1.843,7.743,3.043,11.471L7.871,200.81l23.81,41.238l31.057-17.933c2.648,2.933,5.452,5.738,8.381,8.386
				L53.19,263.552l41.243,23.81l17.905-31.019c3.748,1.214,7.586,2.238,11.471,3.062v35.833h47.619V259.41
				c3.886-0.824,7.724-1.848,11.471-3.062l17.91,31.019l41.243-23.81l-17.933-31.052c2.933-2.643,5.733-5.448,8.381-8.386
				l31.057,17.933l23.81-41.238l-31.024-17.91c1.2-3.733,2.219-7.571,3.043-11.471h35.852v-0.004h0V123.81H259.386z
				 M285.714,161.904h-34.257l-0.69,3.938c-1.062,6.067-2.633,11.986-4.671,17.59l-1.367,3.752l29.628,17.111l-14.286,24.738
				L230.41,211.91l-2.571,3.057c-3.905,4.648-8.233,8.976-12.871,12.871l-3.057,2.567l17.124,29.662l-24.743,14.286l-17.11-29.629
				l-3.757,1.367c-5.657,2.062-11.571,3.638-17.59,4.69l-3.929,0.7v34.233h-28.571v-34.233l-3.938-0.695
				c-6.019-1.057-11.933-2.633-17.59-4.69l-3.757-1.367l-17.105,29.629L66.2,260.071l17.124-29.657l-3.057-2.571
				c-4.643-3.9-8.971-8.233-12.871-12.871l-2.571-3.057l-29.662,17.124L20.876,204.3l29.629-17.11l-1.367-3.752
				c-2.033-5.595-3.605-11.514-4.671-17.59l-0.686-3.943H9.524v-28.571h34.257l0.69-3.938c1.067-6.076,2.638-12,4.671-17.59
				l1.367-3.752L20.88,90.944l14.286-24.738L64.828,83.33l2.571-3.057c3.895-4.643,8.229-8.971,12.871-12.871l3.057-2.571
				l-17.122-29.66l24.743-14.286l17.105,29.629l3.757-1.367c5.581-2.033,11.5-3.61,17.59-4.671l3.933-0.7V9.524h28.571v34.252
				l3.938,0.695c6.09,1.067,12.005,2.643,17.59,4.671l3.757,1.367l17.11-29.629l24.743,14.286l-17.124,29.662l3.057,2.567
				c4.638,3.895,8.967,8.229,12.871,12.871l2.571,3.057L260.081,66.2l14.286,24.738l-29.629,17.11l1.367,3.752
				c2.038,5.61,3.61,11.524,4.671,17.59l0.681,3.943h34.257V161.904z"/>
			<rect x="142.857" y="19.048" width="9.524" height="9.524"/>
			<rect x="80.951" y="35.636" transform="matrix(0.4999 0.8661 -0.8661 0.4999 77.8545 -54.0317)" width="9.524" height="9.524"/>
			<rect x="35.634" y="80.951" transform="matrix(-0.8661 -0.4999 0.4999 -0.8661 32.536 180.141)" width="9.524" height="9.524"/>
			<rect x="19.048" y="142.857" width="9.524" height="9.524"/>
			
				<rect x="35.628" y="204.767" transform="matrix(-0.4999 -0.8661 0.8661 -0.4999 -120.8901 349.2527)" width="9.524" height="9.524"/>
			
				<rect x="80.951" y="250.069" transform="matrix(-0.8661 -0.4999 0.4999 -0.8661 32.5599 518.3834)" width="9.524" height="9.524"/>
			<rect x="142.857" y="266.667" width="9.524" height="9.524"/>
			
				<rect x="204.757" y="250.086" transform="matrix(-0.4999 -0.8661 0.8661 -0.4999 93.5347 563.7067)" width="9.524" height="9.524"/>
			
				<rect x="250.074" y="204.754" transform="matrix(0.8661 0.4999 -0.4999 0.8661 138.8615 -99.3337)" width="9.524" height="9.524"/>
			<rect x="266.667" y="142.857" width="9.524" height="9.524"/>
			
				<rect x="250.078" y="80.962" transform="matrix(0.4999 0.8661 -0.8661 0.4999 201.6915 -177.8422)" width="9.524" height="9.524"/>
			<rect x="204.755" y="35.63" transform="matrix(0.8661 0.4999 -0.4999 0.8661 48.2487 -99.3274)" width="9.524" height="9.524"/>
			<path d="M147.619,52.381c-52.514,0-95.238,42.724-95.238,95.238c0,52.514,42.724,95.238,95.238,95.238
				c52.514,0,95.238-42.724,95.238-95.238C242.857,95.105,200.133,52.381,147.619,52.381z M204.819,83.967
				c-4.557,1.31-11.314,2.886-20.486,4.167c-7.371-10.524-15.409-18.92-21.838-24.848C178.605,66.124,193.138,73.457,204.819,83.967
				z M180.757,100.09c-7.781,0.438-15.038,3.643-20.586,9.2l-7.79,7.786V99.938c10.481-0.148,19.567-0.748,27.3-1.61
				C180.048,98.905,180.4,99.505,180.757,100.09z M152.381,67.067c5.59,4.843,13.495,12.448,21.024,22.3
				c-6.195,0.557-13.191,0.938-21.024,1.052V67.067z M142.857,67.067v23.348c-7.833-0.114-14.829-0.495-21.024-1.048
				C129.362,79.514,137.267,71.91,142.857,67.067z M142.857,99.938v17.133l-7.79-7.79c-5.552-5.557-12.81-8.757-20.586-9.195
				c0.357-0.586,0.71-1.181,1.076-1.757C123.29,99.195,132.381,99.795,142.857,99.938z M132.743,63.285
				c-6.429,5.929-14.467,14.325-21.838,24.848c-9.171-1.281-15.929-2.857-20.486-4.167C102.1,73.456,116.633,66.123,132.743,63.285z
				 M82.9,91.595c4.081,1.443,11.348,3.586,22.333,5.357c-0.9,1.529-1.767,3.105-2.619,4.705
				c-12.567,4.21-21.662,16.076-21.662,30.043c0,3.876,0.724,7.633,2.048,11.157H62.148C63.229,123.309,70.838,105.509,82.9,91.595z
				 M62.152,152.38h26.515v0.001c0.51,0.59,1.014,1.176,1.571,1.733l0.557,0.557c1.319,16.533,7.067,31.248,14.376,43.671
				c-10.886,1.757-18.195,3.876-22.267,5.305C70.842,189.733,63.233,171.933,62.152,152.38z M102.181,166.057l29.61,29.61
				c-5.934,0.29-11.348,0.723-16.21,1.266C109.833,187.923,104.881,177.538,102.181,166.057z M90.425,211.281
				c4.556-1.305,11.261-2.876,20.385-4.152c7.357,10.49,15.419,18.881,21.867,24.814C116.596,229.1,102.087,221.767,90.425,211.281z
				 M142.857,228.185c-5.581-4.838-13.505-12.452-21.024-22.31c5.691-0.504,12.1-0.856,19.162-0.999l1.862,1.857V228.185z
				 M96.971,147.381c-4.19-4.19-6.495-9.762-6.495-15.681c0-12.229,9.948-22.176,22.176-22.176c5.929,0,11.495,2.305,15.681,6.495
				l19.286,19.286l19.286-19.286c4.19-4.19,9.757-6.495,15.681-6.495c12.229,0,22.176,9.948,22.176,22.176
				c0,5.919-2.305,11.49-6.495,15.681l-50.648,50.648L96.971,147.381z M193.048,166.072c-2.705,11.467-7.667,21.848-13.419,30.862
				c-4.858-0.544-10.258-0.977-16.181-1.267L193.048,166.072z M152.381,228.171v-21.433l1.862-1.862
				c7.048,0.143,13.448,0.495,19.133,1C165.862,215.714,157.957,223.329,152.381,228.171z M162.563,231.939
				c6.447-5.929,14.508-14.315,21.866-24.81c9.129,1.276,15.829,2.848,20.386,4.148
				C193.153,221.767,178.644,229.096,162.563,231.939z M212.338,203.653c-4.071-1.434-11.381-3.553-22.271-5.31
				c7.31-12.424,13.057-27.133,14.376-43.667l0.557-0.557c0.557-0.557,1.062-1.148,1.571-1.733h26.519
				C232.009,171.934,224.4,189.738,212.338,203.653z M212.238,142.857c1.324-3.524,2.048-7.281,2.048-11.157
				c0-13.967-9.09-25.833-21.657-30.043c-0.852-1.6-1.719-3.176-2.619-4.705c10.981-1.767,18.248-3.914,22.333-5.357
				c12.062,13.914,19.667,31.714,20.752,51.262H212.238z"/>
		</g>
	</g>
</g>
<g>
</g>
<g>
</g>
<g>
</g>
<g>
</g>
<g>
</g>
<g>
</g>
<g>
</g>
<g>
</g>
<g>
</g>
<g>
</g>
<g>
</g>
<g>
</g>
<g>
</g>
<g>
</g>
<g>
</g>
</svg>
